<svg version="1.1" viewBox="0.0 0.0 100.0 100.0" fill="none" stroke="none" stroke-linecap="square" stroke-miterlimit="10" xmlns:xlink="http://www.w3.org/1999/xlink" xmlns="http://www.w3.org/2000/svg"><clipPath id="p.0"><path d="m0 0l100.0 0l0 100.0l-100.0 0l0 -100.0z" clip-rule="nonzero"/></clipPath><g clip-path="url(#p.0)"><path fill="#000000" fill-opacity="0.0" d="m0 0l100.0 0l0 100.0l-100.0 0z" fill-rule="evenodd"/><path fill="#ffe599" d="m17.699602 72.94927l0 0c0 -6.5757446 5.3297787 -11.906441 11.904392 -11.906441l0 0c3.15724 0 6.1851673 1.254425 8.417673 3.48732c2.2325058 2.2328873 3.4867172 5.2613373 3.4867172 8.419121l0 0c0 6.5757523 -5.329777 11.906448 -11.90439 11.906448l0 0c-6.5746136 0 -11.904392 -5.330696 -11.904392 -11.906448z" fill-rule="evenodd"/><path stroke="#1c1c1c" stroke-width="1.0" stroke-linejoin="round" stroke-linecap="butt" d="m17.699602 72.94927l0 0c0 -6.5757446 5.3297787 -11.906441 11.904392 -11.906441l0 0c3.15724 0 6.1851673 1.254425 8.417673 3.48732c2.2325058 2.2328873 3.4867172 5.2613373 3.4867172 8.419121l0 0c0 6.5757523 -5.329777 11.906448 -11.90439 11.906448l0 0c-6.5746136 0 -11.904392 -5.330696 -11.904392 -11.906448z" fill-rule="evenodd"/><path fill="#76a5af" d="m58.490856 72.94927l0 0c0 -6.5757446 5.329777 -11.906441 11.904392 -11.906441l0 0c3.1572418 0 6.1851654 1.254425 8.417671 3.48732c2.2325058 2.2328873 3.4867172 5.2613373 3.4867172 8.419121l0 0c0 6.5757523 -5.3297806 11.906448 -11.904388 11.906448l0 0c-6.5746155 0 -11.904392 -5.330696 -11.904392 -11.906448z" fill-rule="evenodd"/><path stroke="#1c1c1c" stroke-width="1.0" stroke-linejoin="round" stroke-linecap="butt" d="m58.490856 72.94927l0 0c0 -6.5757446 5.329777 -11.906441 11.904392 -11.906441l0 0c3.1572418 0 6.1851654 1.254425 8.417671 3.48732c2.2325058 2.2328873 3.4867172 5.2613373 3.4867172 8.419121l0 0c0 6.5757523 -5.3297806 11.906448 -11.904388 11.906448l0 0c-6.5746155 0 -11.904392 -5.330696 -11.904392 -11.906448z" fill-rule="evenodd"/><path fill="#fee5a0" d="m58.491615 27.050724l0 0c0 -6.5757465 5.329777 -11.906444 11.904388 -11.906444l0 0c3.1572418 0 6.185173 1.254426 8.417679 3.487317c2.2325058 2.232891 3.4867172 5.261341 3.4867172 8.4191265l0 0c0 6.5757484 -5.3297806 11.906445 -11.904396 11.906445l0 0c-6.5746117 0 -11.904388 -5.330696 -11.904388 -11.906445z" fill-rule="evenodd"/><path stroke="#1c1c1c" stroke-width="1.0" stroke-linejoin="round" stroke-linecap="butt" d="m58.491615 27.050724l0 0c0 -6.5757465 5.329777 -11.906444 11.904388 -11.906444l0 0c3.1572418 0 6.185173 1.254426 8.417679 3.487317c2.2325058 2.232891 3.4867172 5.261341 3.4867172 8.4191265l0 0c0 6.5757484 -5.3297806 11.906445 -11.904396 11.906445l0 0c-6.5746117 0 -11.904388 -5.330696 -11.904388 -11.906445z" fill-rule="evenodd"/><path fill="#000000" fill-opacity="0.0" d="m38.021667 64.53015l23.95485 -29.053917" fill-rule="evenodd"/><path stroke="#1c1c1c" stroke-width="1.0" stroke-linejoin="round" stroke-linecap="butt" d="m38.021667 64.53015l23.95485 -29.053917" fill-rule="evenodd"/><path fill="#000000" fill-opacity="0.0" d="m70.396 38.95717l0 0" fill-rule="evenodd"/><path stroke="#000000" stroke-width="2.0" stroke-linejoin="round" stroke-linecap="butt" d="m70.396 38.95717l0 0" fill-rule="evenodd"/><path fill="#000000" fill-opacity="0.0" d="m70.39525 61.04283l0 -22.078053" fill-rule="evenodd"/><path stroke="#1c1c1c" stroke-width="1.0" stroke-linejoin="round" stroke-linecap="butt" d="m70.39525 61.04283l0 -22.078053" fill-rule="evenodd"/></g></svg>