<svg version="1.1" viewBox="0.0 0.0 248.33333333333334 100.0" fill="none" stroke="none" stroke-linecap="square" stroke-miterlimit="10" xmlns:xlink="http://www.w3.org/1999/xlink" xmlns="http://www.w3.org/2000/svg"><clipPath id="p.0"><path d="m0 0l248.33333 0l0 100.0l-248.33333 0l0 -100.0z" clip-rule="nonzero"/></clipPath><g clip-path="url(#p.0)"><path fill="#000000" fill-opacity="0.0" d="m0 0l248.33333 0l0 100.0l-248.33333 0z" fill-rule="evenodd"/><path fill="#000000" fill-opacity="0.0" d="m82.04462 44.38336l165.38583 0l0 40.472443l-165.38583 0z" fill-rule="evenodd"/><path fill="#45818e" d="m102.18524 76.45209q-2.046875 0 -3.90625 -0.625q-1.859375 -0.640625 -3.234375 -1.796875q-1.375 -1.15625 -2.015625 -2.65625q-0.328125 -0.671875 0.015625 -1.25q0.34375 -0.578125 1.140625 -0.734375q0.578125 -0.125 1.125 0.1875q0.5625 0.296875 0.859375 0.90625q0.375 0.796875 1.25 1.46875q0.890625 0.671875 2.140625 1.09375q1.25 0.40625 2.625 0.40625q1.53125 0 2.828125 -0.46875q1.296875 -0.484375 2.09375 -1.390625q0.796875 -0.921875 0.796875 -2.265625q0 -1.703125 -1.328125 -3.046875q-1.328125 -1.34375 -4.359375 -1.65625q-3.96875 -0.390625 -6.25 -2.3437538q-2.265625 -1.953125 -2.265625 -4.828125q0 -2.109375 1.1875 -3.578125q1.1875 -1.484375 3.21875 -2.25q2.03125 -0.765625 4.515625 -0.765625q1.953125 0 3.40625 0.546875q1.46875 0.546875 2.546875 1.515625q1.09375 0.953125 1.890625 2.265625q0.453125 0.703125 0.375 1.328125q-0.078125 0.609375 -0.625 0.96875q-0.609375 0.390625 -1.3125 0.171875q-0.703125 -0.234375 -1.0625 -0.84375q-0.515625 -0.921875 -1.25 -1.5625q-0.734375 -0.640625 -1.734375 -1.0q-0.984375 -0.375 -2.328125 -0.375q-2.359375 -0.03125 -3.96875 0.875q-1.59375 0.90625 -1.59375 2.796875q0 0.96875 0.484375 1.84375q0.5 0.875 1.828125 1.515625q1.328125 0.640625 3.828125 0.890625q3.8125 0.390625 5.9375 2.3281288q2.125 1.9375 2.125 5.109375q0 1.8125 -0.75 3.15625q-0.75 1.34375 -2.015625 2.265625q-1.265625 0.90625 -2.890625 1.359375q-1.609375 0.4375 -3.328125 0.4375zm21.984802 -0.1875q-2.65625 0 -4.734375 -1.125q-2.0625 -1.140625 -3.234375 -3.140625q-1.15625 -2.0 -1.15625 -4.59375q0 -2.625 1.09375 -4.625004q1.109375 -2.0 3.0625 -3.125q1.953125 -1.140625 4.484375 -1.140625q2.5 0 4.28125 1.109375q1.796875 1.09375 2.734375 3.03125q0.953125 1.9375038 0.953125 4.453129q0 0.609375 -0.421875 1.015625q-0.40625 0.40625 -1.046875 0.40625l-12.90625 0l0 -2.5625l12.8125 0l-1.3125 0.890625q-0.03125 -1.59375 -0.640625 -2.8593788q-0.609375 -1.265625 -1.734375 -2.0q-1.125 -0.734375 -2.71875 -0.734375q-1.828125 0 -3.125 0.796875q-1.296875 0.796875 -1.96875 2.1875038q-0.671875 1.390625 -0.671875 3.15625q0 1.765625 0.796875 3.140625q0.8125 1.375 2.21875 2.171875q1.40625 0.796875 3.234375 0.796875q0.984375 0 2.015625 -0.359375q1.046875 -0.375 1.6875 -0.859375q0.484375 -0.34375 1.046875 -0.359375q0.5625 -0.015625 0.96875 0.328125q0.546875 0.484375 0.578125 1.0625q0.03125 0.578125 -0.515625 0.984375q-1.078125 0.875 -2.703125 1.421875q-1.609375 0.53125 -3.078125 0.53125zm34.62204 -0.09375q-0.703125 0 -1.171875 -0.453125q-0.46875 -0.46875 -0.46875 -1.171875l0 -9.15625q0 -2.0156288 -1.0 -2.9843788q-0.984375 -0.984375 -2.578125 -0.984375q-1.671875 0 -2.75 1.15625q-1.0625 1.140625 -1.0625 2.9375038l-2.65625 0q0 -2.0781288 0.890625 -3.6562538q0.90625 -1.59375 2.515625 -2.484375q1.625 -0.890625 3.703125 -0.890625q1.828125 0 3.234375 0.796875q1.40625 0.796875 2.1875 2.359375q0.78125 1.546875 0.78125 3.7500038l0 9.15625q0 0.703125 -0.453125 1.171875q-0.4375 0.453125 -1.171875 0.453125zm-21.34375 0q-0.703125 0 -1.171875 -0.453125q-0.46875 -0.46875 -0.46875 -1.171875l0 -14.250004q0 -0.734375 0.46875 -1.171875q0.46875 -0.453125 1.171875 -0.453125q0.734375 0 1.171875 0.453125q0.453125 0.4375 0.453125 1.171875l0 14.250004q0 0.703125 -0.453125 1.171875q-0.4375 0.453125 -1.171875 0.453125zm10.6875 0q-0.703125 0 -1.171875 -0.453125q-0.46875 -0.46875 -0.46875 -1.171875l0 -9.15625q0 -2.0156288 -1.0 -2.9843788q-0.984375 -0.984375 -2.578125 -0.984375q-1.671875 0 -2.765625 1.15625q-1.078125 1.140625 -1.078125 2.9375038l-2.015625 0q0 -2.0781288 0.828125 -3.6562538q0.84375 -1.59375 2.3125 -2.484375q1.46875 -0.890625 3.359375 -0.890625q1.828125 0 3.234375 0.796875q1.40625 0.796875 2.1875 2.359375q0.78125 1.546875 0.78125 3.7500038l0 9.15625q0 0.703125 -0.453125 1.171875q-0.4375 0.453125 -1.171875 0.453125zm24.984818 0.09375q-2.328125 0 -4.1875 -1.15625q-1.859375 -1.171875 -2.9375 -3.171875q-1.0625 -2.0 -1.0625 -4.53125q0 -2.53125 1.15625 -4.546879q1.171875 -2.015625 3.171875 -3.171875q2.0 -1.171875 4.5 -1.171875q2.5 0 4.484375 1.171875q1.984375 1.15625 3.140625 3.171875q1.171875 2.0156288 1.171875 4.546879l-1.234375 0q0 2.53125 -1.078125 4.53125q-1.078125 2.0 -2.9375 3.171875q-1.84375 1.15625 -4.1875 1.15625zm0.640625 -2.875q1.640625 0 2.921875 -0.78125q1.28125 -0.78125 2.015625 -2.140625q0.734375 -1.375 0.734375 -3.0625q0 -1.734375 -0.734375 -3.09375q-0.734375 -1.3593788 -2.015625 -2.1406288q-1.28125 -0.78125 -2.921875 -0.78125q-1.59375 0 -2.890625 0.78125q-1.296875 0.78125 -2.046875 2.1406288q-0.75 1.359375 -0.75 3.09375q0 1.6875 0.75 3.0625q0.75 1.359375 2.046875 2.140625q1.296875 0.78125 2.890625 0.78125zm7.171875 2.78125q-0.703125 0 -1.171875 -0.453125q-0.453125 -0.46875 -0.453125 -1.171875l0 -4.90625l0.59375 -3.390625l2.65625 1.15625l0 7.140625q0 0.703125 -0.46875 1.171875q-0.453125 0.453125 -1.15625 0.453125zm8.475037 -0.03125q-0.703125 0 -1.1875 -0.46875q-0.46875 -0.484375 -0.46875 -1.1875l0 -21.671879q0 -0.734375 0.46875 -1.1875q0.484375 -0.46875 1.1875 -0.46875l5.796875 0q2.75 0 5.0 0.90625q2.265625 0.90625 3.921875 2.59375q1.671875 1.671875 2.5625 3.953125q0.90625 2.265625 0.90625 5.015625q0 2.7500038 -0.90625 5.046879q-0.890625 2.28125 -2.5625 3.96875q-1.65625 1.671875 -3.921875 2.59375q-2.25 0.90625 -5.0 0.90625l-5.796875 0zm1.671875 -2.9375l4.125 0q2.6875 0 4.75 -1.234375q2.0625 -1.234375 3.25 -3.390625q1.1875 -2.171875 1.1875 -4.953129q0 -2.8125 -1.1875 -4.953125q-1.1875 -2.140625 -3.25 -3.359375q-2.0625 -1.21875 -4.75 -1.21875l-4.125 0l0 19.109379zm23.38417 2.9375q-0.703125 0 -1.1875 -0.46875q-0.46875 -0.484375 -0.46875 -1.1875l0 -21.671879q0 -0.734375 0.46875 -1.1875q0.484375 -0.46875 1.1875 -0.46875l7.65625 0q2.171875 0 3.8125 0.84375q1.65625 0.84375 2.59375 2.359375q0.953125 1.5 0.953125 3.4375q0 1.578125 -0.859375 2.84375q-0.84375 1.265625 -2.3125 2.0q2.109375 0.515625 3.390625 2.0156288q1.28125 1.5 1.28125 3.9375q0 2.203125 -1.046875 3.90625q-1.03125 1.6875 -2.890625 2.671875q-1.859375 0.96875 -4.25 0.96875l-8.328125 0zm1.671875 -3.078125l6.65625 0q1.46875 0 2.578125 -0.5q1.125 -0.515625 1.765625 -1.5q0.640625 -1.0 0.640625 -2.46875q0 -1.375 -0.640625 -2.265625q-0.640625 -0.90625 -1.765625 -1.359375q-1.109375 -0.46875 -2.578125 -0.46875l-6.65625 0l0 8.5625zm0 -11.640629l5.984375 0q1.828125 0 2.984375 -0.890625q1.171875 -0.90625 1.171875 -2.734375q0 -1.8125 -1.171875 -2.6875q-1.15625 -0.890625 -2.984375 -0.890625l-5.984375 0l0 7.203125z" fill-rule="nonzero"/><path fill="#ffe599" d="m6.9322276 72.94919l0 0c0 -6.5757446 5.3297772 -11.906441 11.90439 -11.906441l0 0c3.15724 0 6.185169 1.254425 8.417675 3.48732c2.2325058 2.2328873 3.4867153 5.2613373 3.4867153 8.419121l0 0c0 6.5757523 -5.329777 11.906448 -11.90439 11.906448l0 0c-6.5746136 0 -11.90439 -5.330696 -11.90439 -11.906448z" fill-rule="evenodd"/><path stroke="#999999" stroke-width="1.0" stroke-linejoin="round" stroke-linecap="butt" d="m6.9322276 72.94919l0 0c0 -6.5757446 5.3297772 -11.906441 11.90439 -11.906441l0 0c3.15724 0 6.185169 1.254425 8.417675 3.48732c2.2325058 2.2328873 3.4867153 5.2613373 3.4867153 8.419121l0 0c0 6.5757523 -5.329777 11.906448 -11.90439 11.906448l0 0c-6.5746136 0 -11.90439 -5.330696 -11.90439 -11.906448z" fill-rule="evenodd"/><path fill="#76a5af" d="m47.72348 72.94919l0 0c0 -6.5757446 5.329777 -11.906441 11.904392 -11.906441l0 0c3.157238 0 6.185169 1.254425 8.417675 3.48732c2.2325058 2.2328873 3.4867172 5.2613373 3.4867172 8.419121l0 0c0 6.5757523 -5.3297806 11.906448 -11.904392 11.906448l0 0c-6.5746155 0 -11.904392 -5.330696 -11.904392 -11.906448z" fill-rule="evenodd"/><path stroke="#999999" stroke-width="1.0" stroke-linejoin="round" stroke-linecap="butt" d="m47.72348 72.94919l0 0c0 -6.5757446 5.329777 -11.906441 11.904392 -11.906441l0 0c3.157238 0 6.185169 1.254425 8.417675 3.48732c2.2325058 2.2328873 3.4867172 5.2613373 3.4867172 8.419121l0 0c0 6.5757523 -5.3297806 11.906448 -11.904392 11.906448l0 0c-6.5746155 0 -11.904392 -5.330696 -11.904392 -11.906448z" fill-rule="evenodd"/><path fill="#fee5a0" d="m47.72424 27.05064l0 0c0 -6.5757465 5.3297806 -11.906444 11.904392 -11.906444l0 0c3.1572418 0 6.1851654 1.254426 8.417679 3.487317c2.2325058 2.232891 3.4867096 5.261341 3.4867096 8.4191265l0 0c0 6.5757484 -5.329773 11.906445 -11.904388 11.906445l0 0c-6.5746117 0 -11.904392 -5.330696 -11.904392 -11.906445z" fill-rule="evenodd"/><path stroke="#999999" stroke-width="1.0" stroke-linejoin="round" stroke-linecap="butt" d="m47.72424 27.05064l0 0c0 -6.5757465 5.3297806 -11.906444 11.904392 -11.906444l0 0c3.1572418 0 6.1851654 1.254426 8.417679 3.487317c2.2325058 2.232891 3.4867096 5.261341 3.4867096 8.4191265l0 0c0 6.5757484 -5.329773 11.906445 -11.904388 11.906445l0 0c-6.5746117 0 -11.904392 -5.330696 -11.904392 -11.906445z" fill-rule="evenodd"/><path fill="#000000" fill-opacity="0.0" d="m27.254293 64.53007l23.954847 -29.053917" fill-rule="evenodd"/><path stroke="#999999" stroke-width="1.0" stroke-linejoin="round" stroke-linecap="butt" d="m27.254293 64.53007l23.954847 -29.053917" fill-rule="evenodd"/><path fill="#000000" fill-opacity="0.0" d="m59.62863 38.957085l0 0" fill-rule="evenodd"/><path stroke="#000000" stroke-width="2.0" stroke-linejoin="round" stroke-linecap="butt" d="m59.62863 38.957085l0 0" fill-rule="evenodd"/><path fill="#000000" fill-opacity="0.0" d="m59.627872 61.042747l0 -22.078053" fill-rule="evenodd"/><path stroke="#999999" stroke-width="1.0" stroke-linejoin="round" stroke-linecap="butt" d="m59.627872 61.042747l0 -22.078053" fill-rule="evenodd"/></g></svg>