<svg version="1.1" viewBox="0.0 0.0 248.33333333333334 100.0" fill="none" stroke="none" stroke-linecap="square" stroke-miterlimit="10" xmlns:xlink="http://www.w3.org/1999/xlink" xmlns="http://www.w3.org/2000/svg"><clipPath id="p.0"><path d="m0 0l248.33333 0l0 100.0l-248.33333 0l0 -100.0z" clip-rule="nonzero"/></clipPath><g clip-path="url(#p.0)"><path fill="#000000" fill-opacity="0.0" d="m0 0l248.33333 0l0 100.0l-248.33333 0z" fill-rule="evenodd"/><path fill="#000000" fill-opacity="0.0" d="m82.04462 44.38336l165.38583 0l0 40.472443l-165.38583 0z" fill-rule="evenodd"/><path fill="#45818e" d="m101.91962 76.45209q-2.046875 0 -3.796875 -0.578125q-1.734375 -0.59375 -3.015625 -1.6875q-1.28125 -1.09375 -1.953125 -2.53125q-0.25 -0.5 -0.015625 -0.9375q0.25 -0.4375 0.8125 -0.59375q0.453125 -0.125 0.875 0.09375q0.4375 0.21875 0.671875 0.671875q0.46875 0.9375 1.390625 1.671875q0.9375 0.734375 2.21875 1.140625q1.28125 0.390625 2.8125 0.390625q1.703125 0 3.015625 -0.5625q1.3125 -0.5625 2.0625 -1.625q0.75 -1.078125 0.75 -2.609375q0 -1.953125 -1.4375 -3.359375q-1.4375 -1.40625 -4.515625 -1.796875q-3.734375 -0.4531288 -5.859375 -2.3125038q-2.109375 -1.875 -2.109375 -4.59375q0 -1.953125 1.03125 -3.390625q1.046875 -1.453125 2.875 -2.234375q1.828125 -0.78125 4.1875 -0.78125q1.765625 0 3.203125 0.5625q1.4375 0.5625 2.5 1.46875q1.078125 0.90625 1.765625 2.0q0.3125 0.515625 0.203125 1.0q-0.109375 0.46875 -0.5625 0.734375q-0.484375 0.21875 -0.984375 0.0625q-0.484375 -0.15625 -0.75 -0.609375q-0.46875 -0.734375 -1.1875 -1.390625q-0.71875 -0.65625 -1.75 -1.03125q-1.03125 -0.390625 -2.46875 -0.421875q-2.53125 0 -4.0625 1.078125q-1.53125 1.0625 -1.53125 3.109375q0 1.09375 0.578125 2.0q0.578125 0.90625 1.90625 1.5625q1.328125 0.65625 3.5625 0.984375q4.0 0.578125 5.9375 2.4531288q1.9375 1.859375 1.9375 4.875q0 1.71875 -0.625 3.0625q-0.625 1.34375 -1.765625 2.265625q-1.140625 0.90625 -2.65625 1.390625q-1.515625 0.46875 -3.25 0.46875zm21.121536 -0.15625q-2.59375 0 -4.59375 -1.125q-2.0 -1.140625 -3.140625 -3.15625q-1.125 -2.015625 -1.125 -4.609375q0 -2.625 1.0625 -4.625004q1.078125 -2.0 2.96875 -3.140625q1.890625 -1.15625 4.359375 -1.15625q2.421875 0 4.234375 1.109375q1.8125 1.09375 2.796875 3.046875q1.0 1.9531288 1.0 4.437504q0 0.515625 -0.328125 0.828125q-0.3125 0.296875 -0.828125 0.296875l-13.609375 0l0 -2.046875l13.859375 0l-1.375 1.0q0.03125 -1.859375 -0.671875 -3.3281288q-0.703125 -1.484375 -2.0 -2.3125q-1.296875 -0.828125 -3.078125 -0.828125q-1.828125 0 -3.203125 0.859375q-1.375 0.859375 -2.140625 2.390625q-0.75 1.5156288 -0.75 3.4687538q0 1.953125 0.84375 3.453125q0.859375 1.5 2.328125 2.375q1.46875 0.859375 3.390625 0.859375q1.15625 0 2.3125 -0.390625q1.171875 -0.40625 1.890625 -1.015625q0.34375 -0.296875 0.78125 -0.3125q0.453125 -0.015625 0.78125 0.25q0.40625 0.375 0.421875 0.828125q0.03125 0.453125 -0.359375 0.765625q-1.0625 0.890625 -2.703125 1.484375q-1.625 0.59375 -3.125 0.59375zm35.36679 -0.15625q-0.546875 0 -0.90625 -0.328125q-0.34375 -0.34375 -0.34375 -0.890625l0 -9.21875q0 -2.2656288 -1.1875 -3.5937538q-1.1875 -1.328125 -3.03125 -1.328125q-1.984375 0 -3.25 1.328125q-1.265625 1.328125 -1.234375 3.5312538l-2.203125 0q0.03125 -2.1406288 0.921875 -3.7656288q0.890625 -1.640625 2.453125 -2.53125q1.578125 -0.90625 3.5625 -0.90625q1.890625 0 3.34375 0.90625q1.453125 0.890625 2.265625 2.53125q0.828125 1.625 0.828125 3.8281288l0 9.21875q0 0.546875 -0.34375 0.890625q-0.328125 0.328125 -0.875 0.328125zm-22.40625 0q-0.578125 0 -0.921875 -0.328125q-0.328125 -0.34375 -0.328125 -0.890625l0 -15.031254q0 -0.546875 0.328125 -0.890625q0.34375 -0.359375 0.921875 -0.359375q0.546875 0 0.875 0.359375q0.34375 0.34375 0.34375 0.890625l0 15.031254q0 0.546875 -0.34375 0.890625q-0.328125 0.328125 -0.875 0.328125zm11.234375 0q-0.546875 0 -0.90625 -0.328125q-0.34375 -0.34375 -0.34375 -0.890625l0 -9.21875q0 -2.2656288 -1.1875 -3.5937538q-1.171875 -1.328125 -3.03125 -1.328125q-1.984375 0 -3.265625 1.296875q-1.28125 1.296875 -1.28125 3.3750038l-1.765625 0q0.0625 -2.0468788 0.90625 -3.6250038q0.859375 -1.59375 2.328125 -2.484375q1.46875 -0.90625 3.328125 -0.90625q1.890625 0 3.34375 0.90625q1.453125 0.890625 2.265625 2.53125q0.828125 1.625 0.828125 3.8281288l0 9.21875q0 0.546875 -0.34375 0.890625q-0.328125 0.328125 -0.875 0.328125zm25.538437 0.15625q-2.46875 0 -4.421875 -1.15625q-1.953125 -1.171875 -3.09375 -3.1875q-1.125 -2.015625 -1.125 -4.546875q0 -2.5625 1.15625 -4.578129q1.171875 -2.015625 3.1875 -3.171875q2.015625 -1.171875 4.546875 -1.171875q2.53125 0 4.53125 1.171875q2.0 1.15625 3.171875 3.171875q1.171875 2.0156288 1.203125 4.578129l-1.0 0.765625q0 2.3125 -1.078125 4.15625q-1.0625 1.828125 -2.90625 2.90625q-1.84375 1.0625 -4.171875 1.0625zm0.25 -2.234375q1.859375 0 3.3125 -0.859375q1.453125 -0.875 2.296875 -2.390625q0.859375 -1.515625 0.859375 -3.40625q0 -1.921875 -0.859375 -3.4218788q-0.84375 -1.5 -2.296875 -2.375q-1.453125 -0.890625 -3.3125 -0.890625q-1.8125 0 -3.296875 0.890625q-1.46875 0.875 -2.328125 2.375q-0.859375 1.5000038 -0.859375 3.4218788q0 1.890625 0.859375 3.40625q0.859375 1.515625 2.328125 2.390625q1.484375 0.859375 3.296875 0.859375zm7.65625 2.078125q-0.546875 0 -0.90625 -0.328125q-0.34375 -0.34375 -0.34375 -0.890625l0 -5.46875l0.609375 -2.53125l1.890625 0.484375l0 7.515625q0 0.546875 -0.359375 0.890625q-0.34375 0.328125 -0.890625 0.328125zm7.6171722 0q-0.546875 0 -0.90625 -0.34375q-0.34375 -0.359375 -0.34375 -0.90625l0 -22.500004q0 -0.53125 0.34375 -0.875q0.359375 -0.359375 0.90625 -0.359375l5.75 0q2.75 0 5.03125 0.90625q2.296875 0.90625 3.953125 2.59375q1.671875 1.671875 2.578125 3.953125q0.921875 2.265625 0.921875 5.015625q0 2.7500038 -0.921875 5.046879q-0.90625 2.28125 -2.578125 3.96875q-1.65625 1.671875 -3.953125 2.59375q-2.28125 0.90625 -5.03125 0.90625l-5.75 0zm1.25 -2.234375l4.5 0q2.953125 0 5.203125 -1.328125q2.25 -1.328125 3.53125 -3.640625q1.28125 -2.328125 1.28125 -5.312504q0 -2.96875 -1.28125 -5.28125q-1.28125 -2.328125 -3.53125 -3.640625q-2.25 -1.3125 -5.203125 -1.3125l-4.5 0l0 20.515629zm23.546295 2.234375q-0.609375 0 -1.015625 -0.328125q-0.390625 -0.34375 -0.390625 -0.921875l0 -22.500004q0 -0.53125 0.34375 -0.875q0.359375 -0.359375 0.90625 -0.359375l7.765625 0q1.921875 0 3.46875 0.8125q1.5625 0.8125 2.46875 2.21875q0.921875 1.40625 0.921875 3.265625q0 1.734375 -0.9375 3.078125q-0.921875 1.34375 -2.421875 2.046875q2.140625 0.578125 3.453125 2.1562538q1.3125 1.578125 1.3125 4.015625q0 2.171875 -1.0 3.84375q-0.984375 1.65625 -2.734375 2.609375q-1.734375 0.9375 -3.984375 0.9375l-8.15625 0zm1.09375 -2.40625l7.0625 0q1.53125 0 2.71875 -0.59375q1.1875 -0.609375 1.859375 -1.734375q0.671875 -1.125 0.671875 -2.65625q0 -1.4375 -0.671875 -2.5q-0.671875 -1.078125 -1.859375 -1.671875q-1.1875 -0.5937538 -2.71875 -0.5937538l-7.0625 0l0 9.750004zm0 -12.156254l6.515625 0q1.921875 0 3.171875 -1.078125q1.25 -1.09375 1.25 -3.046875q0 -1.921875 -1.25 -2.90625q-1.25 -1.0 -3.171875 -1.0l-6.515625 0l0 8.03125z" fill-rule="nonzero"/><path fill="#ffe599" d="m6.9322276 72.94919l0 0c0 -6.5757446 5.3297772 -11.906441 11.90439 -11.906441l0 0c3.15724 0 6.185169 1.254425 8.417675 3.48732c2.2325058 2.2328873 3.4867153 5.2613373 3.4867153 8.419121l0 0c0 6.5757523 -5.329777 11.906448 -11.90439 11.906448l0 0c-6.5746136 0 -11.90439 -5.330696 -11.90439 -11.906448z" fill-rule="evenodd"/><path stroke="#000000" stroke-width="1.0" stroke-linejoin="round" stroke-linecap="butt" d="m6.9322276 72.94919l0 0c0 -6.5757446 5.3297772 -11.906441 11.90439 -11.906441l0 0c3.15724 0 6.185169 1.254425 8.417675 3.48732c2.2325058 2.2328873 3.4867153 5.2613373 3.4867153 8.419121l0 0c0 6.5757523 -5.329777 11.906448 -11.90439 11.906448l0 0c-6.5746136 0 -11.90439 -5.330696 -11.90439 -11.906448z" fill-rule="evenodd"/><path fill="#76a5af" d="m47.72348 72.94919l0 0c0 -6.5757446 5.329777 -11.906441 11.904392 -11.906441l0 0c3.157238 0 6.185169 1.254425 8.417675 3.48732c2.2325058 2.2328873 3.4867172 5.2613373 3.4867172 8.419121l0 0c0 6.5757523 -5.3297806 11.906448 -11.904392 11.906448l0 0c-6.5746155 0 -11.904392 -5.330696 -11.904392 -11.906448z" fill-rule="evenodd"/><path stroke="#000000" stroke-width="1.0" stroke-linejoin="round" stroke-linecap="butt" d="m47.72348 72.94919l0 0c0 -6.5757446 5.329777 -11.906441 11.904392 -11.906441l0 0c3.157238 0 6.185169 1.254425 8.417675 3.48732c2.2325058 2.2328873 3.4867172 5.2613373 3.4867172 8.419121l0 0c0 6.5757523 -5.3297806 11.906448 -11.904392 11.906448l0 0c-6.5746155 0 -11.904392 -5.330696 -11.904392 -11.906448z" fill-rule="evenodd"/><path fill="#ffe599" d="m47.72424 27.05064l0 0c0 -6.5757465 5.3297806 -11.906444 11.904392 -11.906444l0 0c3.1572418 0 6.1851654 1.254426 8.417679 3.487317c2.2325058 2.232891 3.4867096 5.261341 3.4867096 8.4191265l0 0c0 6.5757484 -5.329773 11.906445 -11.904388 11.906445l0 0c-6.5746117 0 -11.904392 -5.330696 -11.904392 -11.906445z" fill-rule="evenodd"/><path stroke="#000000" stroke-width="1.0" stroke-linejoin="round" stroke-linecap="butt" d="m47.72424 27.05064l0 0c0 -6.5757465 5.3297806 -11.906444 11.904392 -11.906444l0 0c3.1572418 0 6.1851654 1.254426 8.417679 3.487317c2.2325058 2.232891 3.4867096 5.261341 3.4867096 8.4191265l0 0c0 6.5757484 -5.329773 11.906445 -11.904388 11.906445l0 0c-6.5746117 0 -11.904392 -5.330696 -11.904392 -11.906445z" fill-rule="evenodd"/><path fill="#000000" fill-opacity="0.0" d="m27.254293 64.53007l23.954847 -29.053917" fill-rule="evenodd"/><path stroke="#000000" stroke-width="1.0" stroke-linejoin="round" stroke-linecap="butt" d="m27.254293 64.53007l23.954847 -29.053917" fill-rule="evenodd"/><path fill="#000000" fill-opacity="0.0" d="m59.62863 38.957085l0 0" fill-rule="evenodd"/><path stroke="#000000" stroke-width="2.0" stroke-linejoin="round" stroke-linecap="butt" d="m59.62863 38.957085l0 0" fill-rule="evenodd"/><path fill="#000000" fill-opacity="0.0" d="m59.627872 61.042747l0 -22.078053" fill-rule="evenodd"/><path stroke="#000000" stroke-width="1.0" stroke-linejoin="round" stroke-linecap="butt" d="m59.627872 61.042747l0 -22.078053" fill-rule="evenodd"/></g></svg>